<?xml version="1.0" encoding="UTF-8"?>
<svg id="Calque_1" data-name="Calque 1" xmlns="http://www.w3.org/2000/svg" viewBox="0 0 1100 655.9">
  <defs>
    <style>
      .cls-1 {
        fill: #8ca7a8;
      }

      .cls-2 {
        fill: #2b3f40;
      }
    </style>
  </defs>
  <polygon class="cls-2" points="458.48 241 408.94 265.9 408.94 265.85 384.19 278.29 384.19 278.34 334.65 303.25 334.65 331.18 384.19 306.27 384.19 418.04 408.94 405.6 408.94 293.83 458.48 268.92 458.48 241"/>
  <polygon class="cls-2" points="286.16 289.27 286.16 290.02 249.21 313.9 211.77 252.74 211.77 252.55 186.97 240.3 186.97 268.56 186.97 296.84 186.97 325.09 186.97 353.35 186.97 353.38 186.97 365.32 186.97 381.63 211.77 393.88 211.77 377.56 211.77 365.62 211.77 365.59 211.77 337.34 211.77 309.08 211.77 292.7 249.21 353.85 253.57 351.04 266.73 342.53 286.16 329.98 286.16 345.81 286.16 374.07 286.16 402.32 286.16 402.35 286.16 414.29 286.16 430.6 310.96 442.85 310.96 426.53 310.96 414.59 310.96 414.56 310.96 386.31 310.96 358.06 310.96 329.77 310.96 301.52 286.16 289.27"/>
  <polygon class="cls-2" points="421.99 233.25 446.7 221.49 346.99 173.43 347.02 173.42 322.1 161.41 322.07 161.42 322.07 161.42 297.35 173.18 297.36 173.18 272.64 184.94 272.63 184.93 247.91 196.69 247.92 196.69 198.45 220.22 223.37 232.23 272.83 208.7 347.62 244.75 372.34 232.99 297.55 196.95 322.27 185.19 421.99 233.25"/>
  <polygon class="cls-1" points="472.56 298.37 472.56 313.37 569.09 361.98 312.42 498.83 77.59 380.59 175.62 328.32 175.62 313.15 48.49 380.93 312.59 513.91 598.19 361.64 472.56 298.37"/>
</svg>